<svg xmlns="http://www.w3.org/2000/svg" xmlns:xlink="http://www.w3.org/1999/xlink" width="520" zoomAndPan="magnify" viewBox="0 0 390 332.250003" height="443" preserveAspectRatio="xMidYMid meet" version="1.0"><defs><g/><clipPath id="7fc6b5d8b6"><path d="M 0.4375 0 L 389.558594 0 L 389.558594 331.5 L 0.4375 331.5 Z M 0.4375 0 " clip-rule="nonzero"/></clipPath></defs><g clip-path="url(#7fc6b5d8b6)"><path fill="#ffffff" d="M 0.4375 0 L 389.5625 0 L 389.5625 338.984375 L 0.4375 338.984375 Z M 0.4375 0 " fill-opacity="1" fill-rule="nonzero"/><path fill="#ffffff" d="M 0.4375 0 L 389.5625 0 L 389.5625 331.5 L 0.4375 331.5 Z M 0.4375 0 " fill-opacity="1" fill-rule="nonzero"/><path fill="#f9bc14" d="M 0.4375 0 L 389.5625 0 L 389.5625 331.5 L 0.4375 331.5 Z M 0.4375 0 " fill-opacity="1" fill-rule="nonzero"/></g><path fill="#000000" d="M 136.640625 31.546875 C 133.746094 35.085938 138.570312 39.265625 141.789062 36.050781 C 143.183594 34.65625 143.289062 33.90625 142.433594 32.40625 C 140.824219 29.941406 138.359375 29.621094 136.640625 31.546875 Z M 136.640625 31.546875 " fill-opacity="1" fill-rule="nonzero"/><path fill="#000000" d="M 240.3125 31.761719 C 238.921875 33.261719 239.5625 36.371094 241.601562 37.441406 C 244.066406 38.835938 246.425781 36.585938 245.78125 33.585938 C 245.460938 31.65625 241.707031 30.371094 240.3125 31.761719 Z M 240.3125 31.761719 " fill-opacity="1" fill-rule="nonzero"/><path fill="#000000" d="M 116.59375 35.085938 C 115.84375 35.300781 115.199219 37.015625 115.199219 38.726562 C 115.199219 41.085938 115.738281 41.941406 117.988281 42.480469 C 122.0625 43.550781 124.527344 40.65625 122.917969 37.015625 C 121.738281 34.441406 119.597656 33.800781 116.59375 35.085938 Z M 116.59375 35.085938 " fill-opacity="1" fill-rule="nonzero"/><path fill="#000000" d="M 261.007812 39.15625 C 258.21875 42.585938 262.398438 47.835938 266.152344 45.480469 C 268.402344 43.980469 269.152344 39.691406 267.222656 38.515625 C 265.078125 37.121094 262.507812 37.335938 261.007812 39.15625 Z M 261.007812 39.15625 " fill-opacity="1" fill-rule="nonzero"/><path fill="#000000" d="M 150.152344 42.800781 C 147.898438 45.371094 148.648438 48.910156 151.757812 49.871094 C 156.367188 51.375 159.261719 44.195312 154.976562 41.835938 C 152.296875 40.441406 152.296875 40.441406 150.152344 42.800781 Z M 150.152344 42.800781 " fill-opacity="1" fill-rule="nonzero"/><path fill="#000000" d="M 225.839844 42.050781 C 225.089844 42.800781 224.554688 44.195312 224.554688 45.15625 C 224.554688 49.765625 232.273438 50.835938 232.917969 46.335938 C 233.558594 41.835938 228.949219 38.941406 225.839844 42.050781 Z M 225.839844 42.050781 " fill-opacity="1" fill-rule="nonzero"/><path fill="#000000" d="M 129.78125 49.445312 C 122.703125 55.015625 129.996094 64.660156 137.5 59.410156 C 140.5 57.375 140.609375 52.230469 137.714844 49.335938 C 135.035156 46.65625 133.320312 46.65625 129.78125 49.445312 Z M 129.78125 49.445312 " fill-opacity="1" fill-rule="nonzero"/><path fill="#000000" d="M 243.53125 51.265625 C 239.5625 55.660156 242.78125 62.410156 248.890625 62.410156 C 254.789062 62.410156 257.46875 54.375 252.75 50.625 C 250.175781 48.695312 245.566406 49.015625 243.53125 51.265625 Z M 243.53125 51.265625 " fill-opacity="1" fill-rule="nonzero"/><path fill="#000000" d="M 208.902344 53.410156 C 206.328125 55.125 205.148438 58.875 206.4375 61.339844 C 208.152344 64.554688 209.4375 65.410156 212.867188 65.410156 C 216.191406 65.410156 219.195312 62.410156 219.195312 59.195312 C 219.195312 54.589844 212.652344 50.835938 208.902344 53.410156 Z M 208.902344 53.410156 " fill-opacity="1" fill-rule="nonzero"/><path fill="#000000" d="M 164.839844 54.480469 C 162.371094 56.089844 161.515625 60.375 163.015625 63.484375 C 166.019531 69.269531 175.238281 66.484375 175.238281 59.839844 C 175.238281 55.125 168.914062 51.910156 164.839844 54.480469 Z M 164.839844 54.480469 " fill-opacity="1" fill-rule="nonzero"/><path fill="#000000" d="M 108.769531 58.875 C 108.015625 60.480469 108.125 61.445312 109.410156 62.730469 C 110.375 63.695312 111.664062 64.234375 112.304688 64.019531 C 114.234375 63.375 115.628906 60.480469 114.878906 58.554688 C 113.914062 56.195312 110.160156 56.410156 108.769531 58.875 Z M 108.769531 58.875 " fill-opacity="1" fill-rule="nonzero"/><path fill="#000000" d="M 266.472656 59.945312 C 265.722656 61.339844 265.832031 62.410156 266.796875 63.804688 C 268.617188 66.375 272.15625 65.410156 272.585938 62.304688 C 273.226562 58.125 268.402344 56.300781 266.472656 59.945312 Z M 266.472656 59.945312 " fill-opacity="1" fill-rule="nonzero"/><path fill="#000000" d="M 144.683594 67.019531 C 137.714844 73.878906 145.863281 84.484375 155.402344 80.84375 C 157.871094 79.878906 160.550781 74.199219 159.800781 71.199219 C 158.085938 64.445312 149.507812 62.089844 144.683594 67.019531 Z M 144.683594 67.019531 " fill-opacity="1" fill-rule="nonzero"/><path fill="#000000" d="M 226.054688 65.519531 C 222.304688 67.449219 220.375 73.339844 221.980469 77.734375 C 222.839844 79.769531 227.878906 82.558594 230.878906 82.558594 C 234.738281 82.558594 238.921875 77.949219 238.921875 73.554688 C 238.921875 67.019531 231.84375 62.625 226.054688 65.519531 Z M 226.054688 65.519531 " fill-opacity="1" fill-rule="nonzero"/><path fill="#000000" d="M 183.921875 71.414062 C 178.882812 77.734375 182.851562 85.773438 190.890625 85.773438 C 195.820312 85.773438 198.824219 82.664062 198.824219 77.414062 C 198.824219 72.054688 195.394531 68.625 190.03125 68.625 C 187.03125 68.625 185.53125 69.375 183.921875 71.414062 Z M 183.921875 71.414062 " fill-opacity="1" fill-rule="nonzero"/><path fill="#000000" d="M 119.488281 71.304688 C 116.703125 74.734375 120.882812 79.984375 124.636719 77.628906 C 128.28125 75.269531 126.992188 69.699219 122.703125 69.699219 C 121.632812 69.699219 120.238281 70.449219 119.488281 71.304688 Z M 119.488281 71.304688 " fill-opacity="1" fill-rule="nonzero"/><path fill="#000000" d="M 254.574219 72.914062 C 250.820312 76.664062 255.324219 81.808594 259.71875 78.699219 C 262.613281 76.664062 262.722656 74.839844 260.148438 72.589844 C 257.574219 70.234375 257.144531 70.339844 254.574219 72.914062 Z M 254.574219 72.914062 " fill-opacity="1" fill-rule="nonzero"/><path fill="#000000" d="M 202.46875 84.058594 C 199.46875 87.058594 198.824219 88.558594 198.824219 92.203125 C 198.824219 103.773438 214.796875 107.3125 220.160156 96.808594 C 222.839844 91.664062 220.695312 84.484375 215.871094 81.914062 C 210.722656 79.34375 206.542969 79.984375 202.46875 84.058594 Z M 202.46875 84.058594 " fill-opacity="1" fill-rule="nonzero"/><path fill="#000000" d="M 161.730469 85.128906 C 158.835938 88.023438 158.085938 89.628906 158.085938 93.058594 C 158.085938 99.167969 162.910156 103.988281 168.914062 103.988281 C 174.378906 103.988281 176.953125 102.597656 178.992188 98.632812 C 181.671875 93.378906 181.027344 89.199219 176.953125 85.128906 C 174.164062 82.34375 172.449219 81.484375 169.339844 81.484375 C 166.230469 81.484375 164.515625 82.34375 161.730469 85.128906 Z M 161.730469 85.128906 " fill-opacity="1" fill-rule="nonzero"/><path fill="#000000" d="M 132.570312 85.34375 C 129.136719 87.699219 129.351562 93.703125 132.890625 96.058594 C 137.394531 98.953125 143.074219 95.628906 143.074219 90.058594 C 143.074219 86.84375 139.859375 83.628906 136.640625 83.628906 C 135.675781 83.628906 133.855469 84.378906 132.570312 85.34375 Z M 132.570312 85.34375 " fill-opacity="1" fill-rule="nonzero"/><path fill="#000000" d="M 238.171875 86.628906 C 234.097656 91.128906 237.3125 97.558594 243.636719 97.558594 C 247.28125 97.558594 249.210938 95.203125 249.210938 90.703125 C 249.210938 85.234375 241.921875 82.558594 238.171875 86.628906 Z M 238.171875 86.628906 " fill-opacity="1" fill-rule="nonzero"/><path fill="#000000" d="M 185.316406 100.773438 C 184.136719 101.203125 181.777344 103.132812 180.277344 105.0625 C 178.023438 107.738281 177.382812 109.5625 177.382812 113.847656 C 177.382812 118.457031 177.8125 119.632812 180.921875 122.742188 C 182.957031 124.777344 185.851562 126.707031 187.460938 127.136719 C 191.855469 128.207031 199.683594 124.777344 202.148438 120.707031 C 208.6875 109.882812 197 96.058594 185.316406 100.773438 Z M 185.316406 100.773438 " fill-opacity="1" fill-rule="nonzero"/><path fill="#000000" d="M 145.863281 108.382812 C 144.363281 110.203125 143.074219 112.882812 143.074219 114.382812 C 143.074219 117.921875 148.542969 123.277344 152.1875 123.277344 C 155.617188 123.277344 161.300781 118.027344 161.300781 114.707031 C 161.300781 105.703125 151.4375 101.632812 145.863281 108.382812 Z M 145.863281 108.382812 " fill-opacity="1" fill-rule="nonzero"/><path fill="#000000" d="M 220.480469 107.203125 C 217.480469 109.988281 216.621094 113.527344 218.015625 117.0625 C 220.480469 123.707031 228.734375 124.886719 233.132812 119.3125 C 236.132812 115.457031 235.8125 111.917969 232.167969 108.167969 C 228.414062 104.417969 223.910156 104.097656 220.480469 107.203125 Z M 220.480469 107.203125 " fill-opacity="1" fill-rule="nonzero"/><path fill="#000000" d="M 159.585938 124.777344 C 154.546875 129.816406 154.546875 134.957031 159.585938 139.996094 C 167.089844 147.496094 178.347656 142.78125 178.453125 132.171875 C 178.453125 128.636719 177.8125 127.027344 175.128906 124.457031 C 170.414062 119.632812 164.625 119.742188 159.585938 124.777344 Z M 159.585938 124.777344 " fill-opacity="1" fill-rule="nonzero"/><path fill="#000000" d="M 203.96875 126.0625 C 200.21875 127.992188 198.824219 130.671875 198.824219 135.601562 C 198.824219 140.636719 200.21875 143.210938 204.183594 145.246094 C 209.007812 147.710938 213.296875 147.28125 217.265625 143.746094 C 220.265625 141.066406 220.800781 139.886719 220.800781 135.601562 C 220.800781 131.316406 220.265625 130.136719 217.265625 127.457031 C 213.40625 123.921875 208.6875 123.492188 203.96875 126.0625 Z M 203.96875 126.0625 " fill-opacity="1" fill-rule="nonzero"/><path fill="#000000" d="M 130.851562 129.921875 C 128.601562 133.136719 128.707031 135.707031 131.28125 138.28125 C 133.960938 140.960938 139 141.066406 141.253906 138.496094 C 145.21875 134.207031 142.109375 127.566406 136.105469 127.566406 C 133.535156 127.566406 131.925781 128.316406 130.851562 129.921875 Z M 130.851562 129.921875 " fill-opacity="1" fill-rule="nonzero"/><path fill="#000000" d="M 238.171875 130.566406 C 235.597656 133.351562 235.8125 139.03125 238.382812 140.425781 C 243.636719 143.101562 249.210938 140.316406 249.210938 134.851562 C 249.210938 129.386719 241.816406 126.492188 238.171875 130.566406 Z M 238.171875 130.566406 " fill-opacity="1" fill-rule="nonzero"/><path fill="#000000" d="M 180.921875 145.351562 C 175.667969 150.605469 179.847656 159.710938 187.566406 159.710938 C 192.925781 159.710938 196.144531 156.605469 196.144531 151.140625 C 196.144531 147.710938 195.5 146.101562 193.570312 144.601562 C 189.925781 141.601562 184.351562 141.925781 180.921875 145.351562 Z M 180.921875 145.351562 " fill-opacity="1" fill-rule="nonzero"/><path fill="#000000" d="M 145.433594 144.390625 C 143.183594 145.246094 140.714844 151.03125 141.574219 153.605469 C 143.71875 160.785156 151.542969 163.140625 156.476562 158.105469 C 162.160156 152.53125 158.40625 143.53125 150.472656 143.746094 C 148.433594 143.746094 146.183594 144.066406 145.433594 144.390625 Z M 145.433594 144.390625 " fill-opacity="1" fill-rule="nonzero"/><path fill="#000000" d="M 223.910156 146.210938 C 217.691406 151.460938 221.125 160.890625 229.378906 161.105469 C 238.492188 161.320312 242.03125 149.316406 234.097656 145.246094 C 229.914062 142.996094 227.234375 143.210938 223.910156 146.210938 Z M 223.910156 146.210938 " fill-opacity="1" fill-rule="nonzero"/><path fill="#000000" d="M 119.058594 147.816406 C 115.414062 151.890625 121.847656 156.925781 125.707031 153.070312 C 127.421875 151.355469 127.316406 149.53125 125.277344 147.496094 C 123.027344 145.246094 121.3125 145.351562 119.058594 147.816406 Z M 119.058594 147.816406 " fill-opacity="1" fill-rule="nonzero"/><path fill="#000000" d="M 253.5 148.460938 C 250.714844 151.890625 254.894531 157.140625 258.648438 154.785156 C 262.292969 152.425781 261.007812 146.851562 256.71875 146.851562 C 255.644531 146.851562 254.25 147.605469 253.5 148.460938 Z M 253.5 148.460938 " fill-opacity="1" fill-rule="nonzero"/><path fill="#000000" d="M 163.125 160.570312 C 159.15625 164.855469 162.160156 171.5 168.054688 171.5 C 171.59375 171.5 174.164062 168.929688 174.164062 165.179688 C 174.164062 159.390625 166.875 156.390625 163.125 160.570312 Z M 163.125 160.570312 " fill-opacity="1" fill-rule="nonzero"/><path fill="#000000" d="M 108.769531 161.320312 C 106.730469 163.785156 107.910156 166.679688 110.910156 166.679688 C 112.628906 166.679688 113.699219 166.035156 113.914062 164.75 C 114.34375 162.820312 112.414062 159.710938 110.910156 159.710938 C 110.484375 159.710938 109.519531 160.464844 108.769531 161.320312 Z M 108.769531 161.320312 " fill-opacity="1" fill-rule="nonzero"/><path fill="#000000" d="M 207.617188 161.425781 C 202.683594 164.855469 205.792969 173.644531 211.902344 173.644531 C 214.90625 173.644531 218.121094 169.679688 218.121094 166.25 C 218.121094 162.925781 214.90625 159.710938 211.6875 159.710938 C 210.722656 159.710938 208.902344 160.464844 207.617188 161.425781 Z M 207.617188 161.425781 " fill-opacity="1" fill-rule="nonzero"/><path fill="#000000" d="M 266.042969 162.5 C 264.757812 163.785156 265.1875 166.890625 266.902344 168.285156 C 269.046875 170.105469 271.941406 167.75 271.511719 164.640625 C 271.191406 162.390625 267.546875 161 266.042969 162.5 Z M 266.042969 162.5 " fill-opacity="1" fill-rule="nonzero"/><path fill="#000000" d="M 128.28125 164.640625 C 123.132812 168.179688 126.457031 176.859375 132.996094 176.859375 C 138.25 176.859375 140.714844 169.144531 136.640625 165.070312 C 134.070312 162.5 131.496094 162.390625 128.28125 164.640625 Z M 128.28125 164.640625 " fill-opacity="1" fill-rule="nonzero"/><path fill="#000000" d="M 242.78125 166.140625 C 238.492188 170.429688 241.492188 177.074219 247.820312 177.074219 C 251.035156 177.074219 254.574219 173.535156 254.574219 170.320312 C 254.574219 167.429688 250.820312 164 247.605469 164 C 246.105469 164 243.960938 164.964844 242.78125 166.140625 Z M 242.78125 166.140625 " fill-opacity="1" fill-rule="nonzero"/><path fill="#000000" d="M 148.648438 176 C 145.539062 179.109375 148.433594 183.714844 152.9375 183.074219 C 157.441406 182.429688 156.367188 174.714844 151.757812 174.714844 C 150.792969 174.714844 149.398438 175.25 148.648438 176 Z M 148.648438 176 " fill-opacity="1" fill-rule="nonzero"/><path fill="#000000" d="M 225.414062 176.964844 C 220.695312 179.644531 225.089844 186.929688 229.914062 184.359375 C 232.703125 182.859375 232.703125 178.359375 230.023438 176.859375 C 227.554688 175.574219 227.664062 175.574219 225.414062 176.964844 Z M 225.414062 176.964844 " fill-opacity="1" fill-rule="nonzero"/><path fill="#000000" d="M 114.773438 182.859375 C 112.734375 184.789062 112.734375 185.003906 114.128906 187.683594 C 115.628906 190.359375 120.132812 190.359375 121.632812 187.574219 C 124.097656 182.859375 118.523438 179 114.773438 182.859375 Z M 114.773438 182.859375 " fill-opacity="1" fill-rule="nonzero"/><path fill="#000000" d="M 259.398438 182.324219 C 258.324219 184.039062 259.71875 188.324219 261.648438 189.074219 C 265.722656 190.574219 269.261719 185.539062 266.152344 182.429688 C 264.542969 180.824219 260.253906 180.714844 259.398438 182.324219 Z M 259.398438 182.324219 " fill-opacity="1" fill-rule="nonzero"/><path fill="#000000" d="M 134.925781 189.183594 C 133.320312 193.253906 138.035156 196.898438 140.5 193.46875 C 141.46875 192.074219 141.574219 191.003906 140.824219 189.609375 C 139.535156 187.144531 135.785156 186.929688 134.925781 189.183594 Z M 134.925781 189.183594 " fill-opacity="1" fill-rule="nonzero"/><path fill="#000000" d="M 238.171875 190.144531 C 236.992188 193.148438 238.597656 195.183594 241.601562 194.863281 C 243.746094 194.648438 244.386719 194.003906 244.386719 191.859375 C 244.386719 189.71875 243.746094 189.074219 241.601562 188.859375 C 239.777344 188.644531 238.492188 189.183594 238.171875 190.144531 Z M 238.171875 190.144531 " fill-opacity="1" fill-rule="nonzero"/><g fill="#ffffff" fill-opacity="1"><g transform="translate(49.915951, 281.867139)"><g><path d="M 7.171875 0 C 6.304688 0 5.875 -0.425781 5.875 -1.28125 L 5.875 -55.09375 C 5.875 -55.945312 6.304688 -56.375 7.171875 -56.375 L 13.9375 -56.375 C 14.789062 -56.375 15.21875 -55.945312 15.21875 -55.09375 L 15.21875 -8.53125 C 15.21875 -8.207031 15.378906 -8.046875 15.703125 -8.046875 L 42.28125 -8.046875 C 43.144531 -8.046875 43.578125 -7.617188 43.578125 -6.765625 L 43.578125 -1.28125 C 43.578125 -0.425781 43.144531 0 42.28125 0 Z M 7.171875 0 "/></g></g></g><g fill="#ffffff" fill-opacity="1"><g transform="translate(93.888692, 281.867139)"><g><path d="M 10.3125 -46.3125 C 8.539062 -46.3125 7.085938 -46.859375 5.953125 -47.953125 C 4.828125 -49.054688 4.265625 -50.46875 4.265625 -52.1875 C 4.265625 -53.90625 4.828125 -55.300781 5.953125 -56.375 C 7.085938 -57.457031 8.539062 -58 10.3125 -58 C 12.082031 -58 13.515625 -57.457031 14.609375 -56.375 C 15.710938 -55.300781 16.265625 -53.90625 16.265625 -52.1875 C 16.265625 -50.46875 15.710938 -49.054688 14.609375 -47.953125 C 13.515625 -46.859375 12.082031 -46.3125 10.3125 -46.3125 Z M 6.921875 0 C 6.066406 0 5.640625 -0.425781 5.640625 -1.28125 L 5.640625 -39.875 C 5.640625 -40.726562 6.066406 -41.15625 6.921875 -41.15625 L 13.6875 -41.15625 C 14.550781 -41.15625 14.984375 -40.726562 14.984375 -39.875 L 14.984375 -1.28125 C 14.984375 -0.425781 14.550781 0 13.6875 0 Z M 6.921875 0 "/></g></g></g><g fill="#ffffff" fill-opacity="1"><g transform="translate(112.411764, 281.867139)"><g><path d="M 30.203125 -39.875 C 30.203125 -40.726562 30.632812 -41.15625 31.5 -41.15625 L 38.265625 -41.15625 C 39.117188 -41.15625 39.546875 -40.726562 39.546875 -39.875 L 39.546875 -2.734375 C 39.546875 3.972656 37.613281 8.773438 33.75 11.671875 C 29.882812 14.578125 24.835938 16.03125 18.609375 16.03125 C 17.097656 16.03125 15.566406 15.945312 14.015625 15.78125 C 13.265625 15.726562 12.890625 15.25 12.890625 14.34375 L 13.125 8.375 C 13.125 8 13.257812 7.703125 13.53125 7.484375 C 13.800781 7.273438 14.148438 7.195312 14.578125 7.25 C 16.398438 7.351562 17.660156 7.40625 18.359375 7.40625 C 22.441406 7.40625 25.4375 6.613281 27.34375 5.03125 C 29.25 3.445312 30.203125 0.773438 30.203125 -2.984375 L 30.203125 -3.46875 C 30.203125 -3.675781 30.148438 -3.804688 30.046875 -3.859375 C 29.941406 -3.921875 29.804688 -3.867188 29.640625 -3.703125 C 27.441406 -1.390625 24.351562 -0.234375 20.375 -0.234375 C 16.882812 -0.234375 13.6875 -1.117188 10.78125 -2.890625 C 7.882812 -4.671875 5.875 -7.382812 4.75 -11.03125 C 4.050781 -13.5625 3.703125 -16.8125 3.703125 -20.78125 C 3.703125 -25.238281 4.132812 -28.648438 5 -31.015625 C 6.070312 -34.285156 7.921875 -36.898438 10.546875 -38.859375 C 13.179688 -40.816406 16.269531 -41.796875 19.8125 -41.796875 C 23.945312 -41.796875 27.222656 -40.585938 29.640625 -38.171875 C 29.804688 -38.015625 29.941406 -37.960938 30.046875 -38.015625 C 30.148438 -38.066406 30.203125 -38.203125 30.203125 -38.421875 Z M 29.640625 -13.6875 C 29.859375 -14.5 30.003906 -15.375 30.078125 -16.3125 C 30.160156 -17.25 30.203125 -18.765625 30.203125 -20.859375 C 30.203125 -22.898438 30.160156 -24.363281 30.078125 -25.25 C 30.003906 -26.132812 29.832031 -27.007812 29.5625 -27.875 C 29.132812 -29.644531 28.257812 -31.066406 26.9375 -32.140625 C 25.625 -33.210938 23.945312 -33.75 21.90625 -33.75 C 19.976562 -33.75 18.34375 -33.210938 17 -32.140625 C 15.65625 -31.066406 14.6875 -29.644531 14.09375 -27.875 C 13.445312 -26.363281 13.125 -24 13.125 -20.78125 C 13.125 -17.445312 13.394531 -15.113281 13.9375 -13.78125 C 14.46875 -12.0625 15.445312 -10.648438 16.875 -9.546875 C 18.300781 -8.441406 20.003906 -7.890625 21.984375 -7.890625 C 24.078125 -7.890625 25.769531 -8.425781 27.0625 -9.5 C 28.351562 -10.570312 29.210938 -11.96875 29.640625 -13.6875 Z M 29.640625 -13.6875 "/></g></g></g><g fill="#ffffff" fill-opacity="1"><g transform="translate(154.612708, 281.867139)"><g><path d="M 24.734375 -41.796875 C 29.128906 -41.796875 32.628906 -40.507812 35.234375 -37.9375 C 37.835938 -35.363281 39.140625 -31.847656 39.140625 -27.390625 L 39.140625 -1.28125 C 39.140625 -0.425781 38.710938 0 37.859375 0 L 31.09375 0 C 30.226562 0 29.796875 -0.425781 29.796875 -1.28125 L 29.796875 -25.453125 C 29.796875 -27.921875 29.082031 -29.921875 27.65625 -31.453125 C 26.238281 -32.984375 24.375 -33.75 22.0625 -33.75 C 19.757812 -33.75 17.894531 -32.992188 16.46875 -31.484375 C 15.050781 -29.984375 14.34375 -28 14.34375 -25.53125 L 14.34375 -1.28125 C 14.34375 -0.425781 13.910156 0 13.046875 0 L 6.28125 0 C 5.425781 0 5 -0.425781 5 -1.28125 L 5 -55.09375 C 5 -55.945312 5.425781 -56.375 6.28125 -56.375 L 13.046875 -56.375 C 13.910156 -56.375 14.34375 -55.945312 14.34375 -55.09375 L 14.34375 -37.703125 C 14.34375 -37.484375 14.394531 -37.347656 14.5 -37.296875 C 14.601562 -37.242188 14.710938 -37.296875 14.828125 -37.453125 C 17.078125 -40.347656 20.378906 -41.796875 24.734375 -41.796875 Z M 24.734375 -41.796875 "/></g></g></g><g fill="#ffffff" fill-opacity="1"><g transform="translate(196.410963, 281.867139)"><g><path d="M 26.828125 -34.875 C 26.828125 -34.019531 26.394531 -33.59375 25.53125 -33.59375 L 17.71875 -33.59375 C 17.394531 -33.59375 17.234375 -33.429688 17.234375 -33.109375 L 17.234375 -14.09375 C 17.234375 -12 17.675781 -10.492188 18.5625 -9.578125 C 19.445312 -8.671875 20.859375 -8.21875 22.796875 -8.21875 L 24.890625 -8.21875 C 25.742188 -8.21875 26.171875 -7.785156 26.171875 -6.921875 L 26.171875 -1.53125 C 26.171875 -0.664062 25.742188 -0.207031 24.890625 -0.15625 L 21.015625 -0.078125 C 16.773438 -0.078125 13.609375 -0.816406 11.515625 -2.296875 C 9.421875 -3.773438 8.347656 -6.523438 8.296875 -10.546875 L 8.296875 -33.109375 C 8.296875 -33.429688 8.132812 -33.59375 7.8125 -33.59375 L 3.625 -33.59375 C 2.757812 -33.59375 2.328125 -34.019531 2.328125 -34.875 L 2.328125 -39.875 C 2.328125 -40.726562 2.757812 -41.15625 3.625 -41.15625 L 7.8125 -41.15625 C 8.132812 -41.15625 8.296875 -41.316406 8.296875 -41.640625 L 8.296875 -50.65625 C 8.296875 -51.519531 8.722656 -51.953125 9.578125 -51.953125 L 15.953125 -51.953125 C 16.804688 -51.953125 17.234375 -51.519531 17.234375 -50.65625 L 17.234375 -41.640625 C 17.234375 -41.316406 17.394531 -41.15625 17.71875 -41.15625 L 25.53125 -41.15625 C 26.394531 -41.15625 26.828125 -40.726562 26.828125 -39.875 Z M 26.828125 -34.875 "/></g></g></g><g fill="#000000" fill-opacity="1"><g transform="translate(224.517904, 281.867139)"><g/></g></g><g fill="#ffffff" fill-opacity="1"><g transform="translate(238.607196, 281.867139)"><g><path d="M 24.96875 0.8125 C 20.9375 0.8125 17.363281 -0.00390625 14.25 -1.640625 C 11.132812 -3.285156 8.734375 -5.609375 7.046875 -8.609375 C 5.359375 -11.617188 4.515625 -15.085938 4.515625 -19.015625 L 4.515625 -37.375 C 4.515625 -41.238281 5.375 -44.660156 7.09375 -47.640625 C 8.8125 -50.617188 11.210938 -52.925781 14.296875 -54.5625 C 17.378906 -56.207031 20.9375 -57.03125 24.96875 -57.03125 C 29.050781 -57.03125 32.632812 -56.207031 35.71875 -54.5625 C 38.8125 -52.925781 41.21875 -50.617188 42.9375 -47.640625 C 44.65625 -44.660156 45.515625 -41.238281 45.515625 -37.375 L 45.515625 -19.015625 C 45.515625 -15.085938 44.65625 -11.617188 42.9375 -8.609375 C 41.21875 -5.609375 38.8125 -3.285156 35.71875 -1.640625 C 32.632812 -0.00390625 29.050781 0.8125 24.96875 0.8125 Z M 24.96875 -7.25 C 28.351562 -7.25 31.066406 -8.296875 33.109375 -10.390625 C 35.148438 -12.484375 36.171875 -15.25 36.171875 -18.6875 L 36.171875 -37.453125 C 36.171875 -40.941406 35.148438 -43.734375 33.109375 -45.828125 C 31.066406 -47.921875 28.351562 -48.96875 24.96875 -48.96875 C 21.632812 -48.96875 18.945312 -47.921875 16.90625 -45.828125 C 14.875 -43.734375 13.859375 -40.941406 13.859375 -37.453125 L 13.859375 -18.6875 C 13.859375 -15.25 14.875 -12.484375 16.90625 -10.390625 C 18.945312 -8.296875 21.632812 -7.25 24.96875 -7.25 Z M 24.96875 -7.25 "/></g></g></g><g fill="#ffffff" fill-opacity="1"><g transform="translate(286.60679, 281.867139)"><g><path d="M 7.171875 0 C 6.304688 0 5.875 -0.425781 5.875 -1.28125 L 5.875 -55.09375 C 5.875 -55.945312 6.304688 -56.375 7.171875 -56.375 L 13.609375 -56.375 C 14.359375 -56.375 14.894531 -56.082031 15.21875 -55.5 L 37.78125 -18.609375 C 37.882812 -18.390625 38.003906 -18.304688 38.140625 -18.359375 C 38.273438 -18.410156 38.34375 -18.546875 38.34375 -18.765625 L 38.34375 -55.09375 C 38.34375 -55.945312 38.769531 -56.375 39.625 -56.375 L 46.390625 -56.375 C 47.253906 -56.375 47.6875 -55.945312 47.6875 -55.09375 L 47.6875 -1.28125 C 47.6875 -0.425781 47.253906 0 46.390625 0 L 39.796875 0 C 39.035156 0 38.492188 -0.296875 38.171875 -0.890625 L 15.625 -38.015625 C 15.519531 -38.234375 15.398438 -38.3125 15.265625 -38.25 C 15.128906 -38.195312 15.0625 -38.066406 15.0625 -37.859375 L 15.140625 -1.28125 C 15.140625 -0.425781 14.710938 0 13.859375 0 Z M 7.171875 0 "/></g></g></g></svg>