<?xml version="1.0" standalone="no"?>
<!DOCTYPE svg PUBLIC "-//W3C//DTD SVG 20010904//EN"
 "http://www.w3.org/TR/2001/REC-SVG-20010904/DTD/svg10.dtd">
<svg version="1.0" xmlns="http://www.w3.org/2000/svg"
 width="520.000000pt" height="443.000000pt" viewBox="0 0 520.000000 443.000000"
 preserveAspectRatio="xMidYMid meet">

<g transform="translate(0.000000,443.000000) scale(0.100000,-0.100000)"
fill="#000000" stroke="none">
<path d="M2000 3606 c-27 -33 18 -72 48 -42 13 13 14 20 6 34 -15 23 -38 26
-54 8z"/>
<path d="M2967 3604 c-13 -14 -7 -43 12 -53 23 -13 45 8 39 36 -3 18 -38 30
-51 17z"/>
<path d="M1813 3573 c-7 -2 -13 -18 -13 -34 0 -22 5 -30 26 -35 38 -10 61 17
46 51 -11 24 -31 30 -59 18z"/>
<path d="M3160 3535 c-26 -32 13 -81 48 -59 21 14 28 54 10 65 -20 13 -44 11
-58 -6z"/>
<path d="M2126 3501 c-21 -24 -14 -57 15 -66 43 -14 70 53 30 75 -25 13 -25
13 -45 -9z"/>
<path d="M2832 3508 c-7 -7 -12 -20 -12 -29 0 -43 72 -53 78 -11 6 42 -37 69
-66 40z"/>
<path d="M1936 3439 c-66 -52 2 -142 72 -93 28 19 29 67 2 94 -25 25 -41 25
-74 -1z"/>
<path d="M2997 3422 c-37 -41 -7 -104 50 -104 55 0 80 75 36 110 -24 18 -67
15 -86 -6z"/>
<path d="M2674 3402 c-24 -16 -35 -51 -23 -74 16 -30 28 -38 60 -38 31 0 59
28 59 58 0 43 -61 78 -96 54z"/>
<path d="M2263 3392 c-23 -15 -31 -55 -17 -84 28 -54 114 -28 114 34 0 44 -59
74 -97 50z"/>
<path d="M1740 3351 c-7 -15 -6 -24 6 -36 9 -9 21 -14 27 -12 18 6 31 33 24
51 -9 22 -44 20 -57 -3z"/>
<path d="M3211 3341 c-7 -13 -6 -23 3 -36 17 -24 50 -15 54 14 6 39 -39 56
-57 22z"/>
<path d="M2075 3275 c-65 -64 11 -163 100 -129 23 9 48 62 41 90 -16 63 -96
85 -141 39z"/>
<path d="M2834 3289 c-35 -18 -53 -73 -38 -114 8 -19 55 -45 83 -45 36 0 75
43 75 84 0 61 -66 102 -120 75z"/>
<path d="M2441 3234 c-47 -59 -10 -134 65 -134 46 0 74 29 74 78 0 50 -32 82
-82 82 -28 0 -42 -7 -57 -26z"/>
<path d="M1840 3235 c-26 -32 13 -81 48 -59 34 22 22 74 -18 74 -10 0 -23 -7
-30 -15z"/>
<path d="M3100 3220 c-35 -35 7 -83 48 -54 27 19 28 36 4 57 -24 22 -28 21
-52 -3z"/>
<path d="M2614 3116 c-28 -28 -34 -42 -34 -76 0 -108 149 -141 199 -43 25 48
5 115 -40 139 -48 24 -87 18 -125 -20z"/>
<path d="M2234 3106 c-27 -27 -34 -42 -34 -74 0 -57 45 -102 101 -102 51 0 75
13 94 50 25 49 19 88 -19 126 -26 26 -42 34 -71 34 -29 0 -45 -8 -71 -34z"/>
<path d="M1962 3104 c-32 -22 -30 -78 3 -100 42 -27 95 4 95 56 0 30 -30 60
-60 60 -9 0 -26 -7 -38 -16z"/>
<path d="M2947 3092 c-38 -42 -8 -102 51 -102 34 0 52 22 52 64 0 51 -68 76
-103 38z"/>
<path d="M2454 2960 c-11 -4 -33 -22 -47 -40 -21 -25 -27 -42 -27 -82 0 -43 4
-54 33 -83 19 -19 46 -37 61 -41 41 -10 114 22 137 60 61 101 -48 230 -157
186z"/>
<path d="M2086 2889 c-14 -17 -26 -42 -26 -56 0 -33 51 -83 85 -83 32 0 85 49
85 80 0 84 -92 122 -144 59z"/>
<path d="M2782 2900 c-28 -26 -36 -59 -23 -92 23 -62 100 -73 141 -21 28 36
25 69 -9 104 -35 35 -77 38 -109 9z"/>
<path d="M2214 2736 c-47 -47 -47 -95 0 -142 70 -70 175 -26 176 73 0 33 -6
48 -31 72 -44 45 -98 44 -145 -3z"/>
<path d="M2628 2724 c-35 -18 -48 -43 -48 -89 0 -47 13 -71 50 -90 45 -23 85
-19 122 14 28 25 33 36 33 76 0 40 -5 51 -33 76 -36 33 -80 37 -124 13z"/>
<path d="M1946 2688 c-21 -30 -20 -54 4 -78 25 -25 72 -26 93 -2 37 40 8 102
-48 102 -24 0 -39 -7 -49 -22z"/>
<path d="M2947 2682 c-24 -26 -22 -79 2 -92 49 -25 101 1 101 52 0 51 -69 78
-103 40z"/>
<path d="M2413 2544 c-49 -49 -10 -134 62 -134 50 0 80 29 80 80 0 32 -6 47
-24 61 -34 28 -86 25 -118 -7z"/>
<path d="M2082 2553 c-21 -8 -44 -62 -36 -86 20 -67 93 -89 139 -42 53 52 18
136 -56 134 -19 0 -40 -3 -47 -6z"/>
<path d="M2814 2536 c-58 -49 -26 -137 51 -139 85 -2 118 110 44 148 -39 21
-64 19 -95 -9z"/>
<path d="M1836 2521 c-34 -38 26 -85 62 -49 16 16 15 33 -4 52 -21 21 -37 20
-58 -3z"/>
<path d="M3090 2515 c-26 -32 13 -81 48 -59 34 22 22 74 -18 74 -10 0 -23 -7
-30 -15z"/>
<path d="M2247 2402 c-37 -40 -9 -102 46 -102 33 0 57 24 57 59 0 54 -68 82
-103 43z"/>
<path d="M1740 2395 c-19 -23 -8 -50 20 -50 16 0 26 6 28 18 4 18 -14 47 -28
47 -4 0 -13 -7 -20 -15z"/>
<path d="M2662 2394 c-46 -32 -17 -114 40 -114 28 0 58 37 58 69 0 31 -30 61
-60 61 -9 0 -26 -7 -38 -16z"/>
<path d="M3207 2384 c-12 -12 -8 -41 8 -54 20 -17 47 5 43 34 -3 21 -37 34
-51 20z"/>
<path d="M1922 2364 c-48 -33 -17 -114 44 -114 49 0 72 72 34 110 -24 24 -48
25 -78 4z"/>
<path d="M2990 2350 c-40 -40 -12 -102 47 -102 30 0 63 33 63 63 0 27 -35 59
-65 59 -14 0 -34 -9 -45 -20z"/>
<path d="M2112 2258 c-29 -29 -2 -72 40 -66 42 6 32 78 -11 78 -9 0 -22 -5
-29 -12z"/>
<path d="M2828 2249 c-44 -25 -3 -93 42 -69 26 14 26 56 1 70 -23 12 -22 12
-43 -1z"/>
<path d="M1796 2194 c-19 -18 -19 -20 -6 -45 14 -25 56 -25 70 1 23 44 -29 80
-64 44z"/>
<path d="M3145 2199 c-10 -16 3 -56 21 -63 38 -14 71 33 42 62 -15 15 -55 16
-63 1z"/>
<path d="M1984 2135 c-15 -38 29 -72 52 -40 9 13 10 23 3 36 -12 23 -47 25
-55 4z"/>
<path d="M2947 2126 c-11 -28 4 -47 32 -44 20 2 26 8 26 28 0 20 -6 26 -26 28
-17 2 -29 -3 -32 -12z"/>
</g>
</svg>
